<svg width="48" height="48" viewBox="0 0 48 48" fill="none" xmlns="http://www.w3.org/2000/svg">
<rect width="48" height="48" rx="5" fill="#212832"/>
<mask id="mask0" style="mask-type:alpha" maskUnits="userSpaceOnUse" x="0" y="0" width="48" height="48">
<rect width="48" height="48" fill="#C4C4C4"/>
</mask>
<g mask="url(#mask0)">
<path d="M36.6816 36.2207C35.5479 37.4805 33.8892 38.4953 31.7056 39.2651C29.522 40.035 27.1284 40.4199 24.5249 40.4199C20.5216 40.4199 17.3232 39.1951 14.9297 36.7456C12.5361 34.2961 11.2554 30.8877 11.0874 26.5205L11.0664 23.875C11.0664 20.8656 11.5983 18.241 12.6621 16.0015C13.7259 13.7479 15.2446 12.0192 17.2183 10.8154C19.2059 9.59766 21.5015 8.98877 24.105 8.98877C27.9123 8.98877 30.8657 9.86361 32.9653 11.6133C35.0789 13.349 36.3107 15.9455 36.6606 19.4028H29.564C29.312 17.6951 28.7661 16.4774 27.9263 15.7495C27.0864 15.0216 25.8966 14.6577 24.3569 14.6577C22.5093 14.6577 21.0815 15.4416 20.0737 17.0093C19.0659 18.577 18.555 20.8166 18.541 23.728V25.5757C18.541 28.6271 19.0589 30.9227 20.0947 32.4624C21.1445 33.9881 22.7892 34.751 25.0288 34.751C26.9465 34.751 28.3742 34.3241 29.312 33.4702V28.7251H24.189V23.665H36.6816V36.2207Z" fill="url(#paint0_linear)"/>
</g>
<defs>
<linearGradient id="paint0_linear" x1="17.6952" y1="-12.9706" x2="32.9325" y2="-11.3402" gradientUnits="userSpaceOnUse">
<stop offset="0.6325" stop-color="#F9C71B"/>
<stop offset="0.953006" stop-color="#FF0199"/>
</linearGradient>
</defs>
</svg>
