<svg width="228" height="57" viewBox="0 0 228 57" fill="none" xmlns="http://www.w3.org/2000/svg">
<path d="M0.954102 28.4521C0.954102 23.751 2.06803 19.9655 4.2959 17.0957C6.54264 14.2259 9.56348 12.791 13.3584 12.791C16.7191 12.791 19.334 13.9427 21.2031 16.2461L21.543 13.3574H28.9629V42.9805C28.9629 45.6615 28.3493 47.9932 27.1221 49.9756C25.9137 51.958 24.2051 53.4684 21.9961 54.5068C19.7871 55.5452 17.2005 56.0645 14.2363 56.0645C11.9896 56.0645 9.79948 55.6113 7.66602 54.7051C5.53255 53.8177 3.91829 52.666 2.82324 51.25L6.44824 46.2656C8.4873 48.5501 10.9606 49.6924 13.8682 49.6924C16.0394 49.6924 17.7292 49.1071 18.9375 47.9365C20.1458 46.7848 20.75 45.1423 20.75 43.0088V41.3662C18.862 43.4997 16.3792 44.5664 13.3018 44.5664C9.62012 44.5664 6.63704 43.1315 4.35254 40.2617C2.08691 37.373 0.954102 33.5498 0.954102 28.792V28.4521ZM9.13867 29.0469C9.13867 31.8223 9.69564 34.0029 10.8096 35.5889C11.9235 37.1559 13.4528 37.9395 15.3975 37.9395C17.8896 37.9395 19.6738 37.0049 20.75 35.1357V22.25C19.6549 20.3809 17.8896 19.4463 15.4541 19.4463C13.4906 19.4463 11.9424 20.2487 10.8096 21.8535C9.69564 23.4583 9.13867 25.8561 9.13867 29.0469ZM45.656 44H37.4431V0.5H45.656V44ZM52.8902 28.3955C52.8902 25.3558 53.4754 22.6465 54.646 20.2676C55.8166 17.8887 57.4969 16.0479 59.687 14.7451C61.896 13.4424 64.4543 12.791 67.3618 12.791C71.4966 12.791 74.8667 14.056 77.4722 16.5859C80.0965 19.1159 81.5598 22.5521 81.8618 26.8945L81.9185 28.9902C81.9185 33.6914 80.6063 37.4674 77.982 40.3184C75.3576 43.1504 71.8364 44.5664 67.4185 44.5664C63.0005 44.5664 59.4699 43.1504 56.8267 40.3184C54.2023 37.4863 52.8902 33.6348 52.8902 28.7637V28.3955ZM61.0747 28.9902C61.0747 31.8978 61.6223 34.1257 62.7173 35.6738C63.8124 37.2031 65.3794 37.9678 67.4185 37.9678C69.4009 37.9678 70.9491 37.2126 72.063 35.7021C73.1769 34.1729 73.7339 31.7373 73.7339 28.3955C73.7339 25.5446 73.1769 23.3356 72.063 21.7686C70.9491 20.2015 69.382 19.418 67.3618 19.418C65.3605 19.418 63.8124 20.2015 62.7173 21.7686C61.6223 23.3167 61.0747 25.724 61.0747 28.9902ZM116.312 28.9619C116.312 33.8708 115.264 37.7035 113.168 40.46C111.073 43.1976 108.146 44.5664 104.389 44.5664C101.066 44.5664 98.4134 43.292 96.4309 40.7432L96.0628 44H88.6995V0.5H96.8841V16.1045C98.7721 13.8955 101.255 12.791 104.332 12.791C108.071 12.791 110.997 14.1693 113.112 16.9258C115.245 19.6634 116.312 23.5244 116.312 28.5088V28.9619ZM108.127 28.3672C108.127 25.2708 107.636 23.0146 106.655 21.5986C105.673 20.1637 104.21 19.4463 102.265 19.4463C99.6595 19.4463 97.8658 20.513 96.8841 22.6465V34.7393C97.8847 36.8916 99.6972 37.9678 102.322 37.9678C104.965 37.9678 106.702 36.665 107.533 34.0596C107.929 32.8135 108.127 30.916 108.127 28.3672ZM121.847 28.3955C121.847 25.3558 122.432 22.6465 123.603 20.2676C124.773 17.8887 126.453 16.0479 128.644 14.7451C130.853 13.4424 133.411 12.791 136.318 12.791C140.453 12.791 143.823 14.056 146.429 16.5859C149.053 19.1159 150.516 22.5521 150.818 26.8945L150.875 28.9902C150.875 33.6914 149.563 37.4674 146.939 40.3184C144.314 43.1504 140.793 44.5664 136.375 44.5664C131.957 44.5664 128.426 43.1504 125.783 40.3184C123.159 37.4863 121.847 33.6348 121.847 28.7637V28.3955ZM130.031 28.9902C130.031 31.8978 130.579 34.1257 131.674 35.6738C132.769 37.2031 134.336 37.9678 136.375 37.9678C138.357 37.9678 139.906 37.2126 141.02 35.7021C142.134 34.1729 142.69 31.7373 142.69 28.3955C142.69 25.5446 142.134 23.3356 141.02 21.7686C139.906 20.2015 138.339 19.418 136.318 19.418C134.317 19.418 132.769 20.2015 131.674 21.7686C130.579 23.3167 130.031 25.724 130.031 28.9902ZM179.576 33.1816C179.576 31.5768 179.01 30.3496 177.877 29.5C176.744 28.6315 174.705 27.7253 171.76 26.7812C168.814 25.8184 166.483 24.8743 164.764 23.9492C160.082 21.4193 157.741 18.0114 157.741 13.7256C157.741 11.4977 158.364 9.5153 159.61 7.77832C160.875 6.02246 162.678 4.65365 165.019 3.67188C167.379 2.6901 170.023 2.19922 172.949 2.19922C175.894 2.19922 178.519 2.7373 180.822 3.81348C183.125 4.87077 184.91 6.37174 186.175 8.31641C187.458 10.2611 188.1 12.4701 188.1 14.9434H179.604C179.604 13.0553 179.01 11.5921 177.82 10.5537C176.631 9.49642 174.96 8.96777 172.807 8.96777C170.731 8.96777 169.116 9.41146 167.965 10.2988C166.813 11.1673 166.237 12.319 166.237 13.7539C166.237 15.0944 166.907 16.2178 168.248 17.124C169.607 18.0303 171.599 18.8799 174.223 19.6729C179.057 21.1266 182.578 22.9297 184.787 25.082C186.996 27.2344 188.1 29.9154 188.1 33.125C188.1 36.6934 186.75 39.4971 184.051 41.5361C181.351 43.5563 177.716 44.5664 173.147 44.5664C169.975 44.5664 167.087 43.9906 164.481 42.8389C161.876 41.6683 159.884 40.0729 158.506 38.0527C157.146 36.0326 156.467 33.6914 156.467 31.0293H164.991C164.991 35.5794 167.71 37.8545 173.147 37.8545C175.167 37.8545 176.744 37.4486 177.877 36.6367C179.01 35.806 179.576 34.6543 179.576 33.1816ZM204.114 29.4717V44H195.618V2.76562H211.704C214.8 2.76562 217.519 3.33203 219.86 4.46484C222.22 5.59766 224.032 7.21191 225.297 9.30762C226.562 11.3844 227.195 13.7539 227.195 16.416C227.195 20.4564 225.807 23.6471 223.032 25.9883C220.275 28.3105 216.452 29.4717 211.562 29.4717H204.114ZM204.114 22.5898H211.704C213.95 22.5898 215.659 22.0612 216.83 21.0039C218.019 19.9466 218.614 18.4362 218.614 16.4727C218.614 14.4525 218.019 12.8193 216.83 11.5732C215.64 10.3271 213.998 9.68522 211.902 9.64746H204.114V22.5898Z" fill="url(#paint0_linear)"/>
<defs>
<linearGradient id="paint0_linear" x1="23.474" y1="-52" x2="204.728" y2="34.472" gradientUnits="userSpaceOnUse">
<stop offset="0.6325" stop-color="#F9C71B"/>
<stop offset="0.953006" stop-color="#FF0199"/>
</linearGradient>
</defs>
</svg>
